<?xml version="1.0" standalone="no"?>
<!DOCTYPE svg PUBLIC "-//W3C//DTD SVG 20010904//EN"
 "http://www.w3.org/TR/2001/REC-SVG-20010904/DTD/svg10.dtd">
<svg version="1.0" xmlns="http://www.w3.org/2000/svg"
 width="146.000000pt" height="149.000000pt" viewBox="0 0 146.000000 149.000000"
 preserveAspectRatio="xMidYMid meet">

<g transform="translate(0.000000,149.000000) scale(0.100000,-0.100000)"
fill="#000000" stroke="none">
<path d="M220 735 l0 -695 525 0 c289 0 525 2 525 5 0 2 -17 38 -37 80 l-37
75 -408 0 -408 0 -2 613 -3 612 -77 3 -78 3 0 -696z"/>
<path d="M627 1423 c-4 -3 -7 -242 -7 -530 l0 -524 83 3 82 3 5 220 5 220 178
3 177 2 0 80 0 80 -180 0 -180 0 0 140 0 140 200 0 200 0 40 80 c22 44 40 82
40 85 0 8 -636 6 -643 -2z"/>
</g>
</svg>
